<?xml version="1.0" encoding="UTF-8" standalone="no"?>
<svg
   version="1.1"
   viewBox="0 0 426.33072 252.00788"
   fill="none"
   stroke="none"
   stroke-linecap="square"
   stroke-miterlimit="10"
   id="svg35"
   sodipodi:docname="Untitled presentation(2).svg"
   width="426.33072"
   height="252.00787"
   inkscape:version="1.3.1 (91b66b0, 2023-11-16)"
   xmlns:inkscape="http://www.inkscape.org/namespaces/inkscape"
   xmlns:sodipodi="http://sodipodi.sourceforge.net/DTD/sodipodi-0.dtd"
   xmlns="http://www.w3.org/2000/svg"
   xmlns:svg="http://www.w3.org/2000/svg">
  <defs
     id="defs35" />
  <sodipodi:namedview
     id="namedview35"
     pagecolor="#ffffff"
     bordercolor="#000000"
     borderopacity="0.25"
     inkscape:showpageshadow="2"
     inkscape:pageopacity="0.0"
     inkscape:pagecheckerboard="0"
     inkscape:deskcolor="#d1d1d1"
     inkscape:zoom="0.35625"
     inkscape:cx="397.19298"
     inkscape:cy="126.31579"
     inkscape:window-width="1920"
     inkscape:window-height="1027"
     inkscape:window-x="0"
     inkscape:window-y="25"
     inkscape:window-maximized="1"
     inkscape:current-layer="svg35" />
  <clipPath
     id="g3297f2bd84d_0_0.0">
    <path
       d="M 0,0 H 960 V 540 H 0 Z"
       clip-rule="nonzero"
       id="path1" />
  </clipPath>
  <g
     clip-path="url(#g3297f2bd84d_0_0.0)"
     id="g35"
     transform="translate(-81.55643,-143.99606)">
    <path
       fill="#eeeeee"
       d="M 190.21785,145.49606 H 399.22571 V 394.50393 H 190.21785 Z"
       fill-rule="evenodd"
       id="path2" />
    <path
       stroke="#595959"
       stroke-width="3"
       stroke-linejoin="round"
       stroke-linecap="butt"
       stroke-dasharray="12, 9"
       d="M 190.21785,145.49606 H 399.22571 V 394.50393 H 190.21785 Z"
       fill-rule="evenodd"
       id="path3" />
    <path
       fill="#000000"
       fill-opacity="0"
       d="M 187.71391,323 H 401.72964"
       fill-rule="evenodd"
       id="path4" />
    <path
       stroke="#595959"
       stroke-width="3"
       stroke-linejoin="round"
       stroke-linecap="butt"
       d="M 187.71391,323 H 401.72964"
       fill-rule="evenodd"
       id="path5" />
    <path
       fill="#000000"
       fill-opacity="0"
       d="m 296.33072,217 h 104.6929"
       fill-rule="evenodd"
       id="path6" />
    <path
       stroke="#595959"
       stroke-width="3"
       stroke-linejoin="round"
       stroke-linecap="butt"
       d="m 296.33072,217 h 104.6929"
       fill-rule="evenodd"
       id="path7" />
    <path
       fill="#000000"
       fill-opacity="0"
       d="M 81.55643,195.57742 H 190.21785"
       fill-rule="evenodd"
       id="path8" />
    <path
       stroke="#595959"
       stroke-width="3"
       stroke-linejoin="round"
       stroke-linecap="butt"
       d="m 81.55643,195.57742 h 90.66142"
       fill-rule="evenodd"
       id="path9" />
    <path
       fill="#595959"
       stroke="#595959"
       stroke-width="3"
       stroke-linecap="butt"
       d="m 172.21785,200.53262 13.61429,-4.9552 -13.61429,-4.9552 z"
       fill-rule="evenodd"
       id="path10" />
    <path
       fill="#000000"
       fill-opacity="0"
       d="M 81.55643,323 H 190.21785"
       fill-rule="evenodd"
       id="path11" />
    <path
       stroke="#595959"
       stroke-width="3"
       stroke-linejoin="round"
       stroke-linecap="butt"
       d="m 81.55643,323 h 90.66142"
       fill-rule="evenodd"
       id="path12" />
    <path
       fill="#595959"
       stroke="#595959"
       stroke-width="3"
       stroke-linecap="butt"
       d="M 172.21785,327.9552 185.83214,323 172.21785,318.0448 Z"
       fill-rule="evenodd"
       id="path13" />
    <path
       fill="#ffffff"
       d="m 252.89502,283.31235 h 83.65353 v 84.03149 h -83.65353 z"
       fill-rule="evenodd"
       id="path14" />
    <path
       stroke="#595959"
       stroke-width="3"
       stroke-linejoin="round"
       stroke-linecap="butt"
       d="m 252.89502,283.31235 h 83.65353 v 84.03149 h -83.65353 z"
       fill-rule="evenodd"
       id="path15" />
    <path
       fill="#000000"
       d="m 282.14993,333.86807 v -2.73438 h 4.60937 v -7.75 h -4.01562 v -2.71875 h 6.89062 v 10.46875 h 4.07813 v 2.73438 z m 5.8125,-15.40625 q -0.92188,0 -1.45313,-0.46875 -0.51562,-0.46875 -0.51562,-1.26563 0,-0.78125 0.51562,-1.25 0.53125,-0.46875 1.45313,-0.46875 0.90625,0 1.4375,0.46875 0.53125,0.46875 0.53125,1.25 0,0.79688 -0.53125,1.26563 -0.53125,0.46875 -1.4375,0.46875 z m 12.83746,15.64062 q -1.96875,0 -3.1875,-1.35937 -1.20312,-1.375 -1.20312,-3.67188 v -3.57812 q 0,-2.32813 1.1875,-3.6875 1.20312,-1.375 3.20312,-1.375 1.625,0 2.57813,0.92187 0.96875,0.92188 0.96875,2.53125 l -0.67188,-0.70312 h 0.6875 l -0.0937,-3.14063 v -3.6875 h 3 v 17.51563 h -2.92187 v -2.51563 h -0.67188 l 0.67188,-0.70312 q 0,1.60937 -0.96875,2.53125 -0.95313,0.92187 -2.57813,0.92187 z m 1.04688,-2.59375 q 1.15625,0 1.78125,-0.67187 0.64062,-0.6875 0.64062,-1.90625 v -3.3125 q 0,-1.23438 -0.64062,-1.90625 -0.625,-0.6875 -1.78125,-0.6875 -1.15625,0 -1.79688,0.67187 -0.64062,0.67188 -0.64062,1.92188 v 3.3125 q 0,1.23437 0.64062,1.90625 0.64063,0.67187 1.79688,0.67187 z"
       fill-rule="nonzero"
       id="path16" />
    <path
       fill="#000000"
       fill-opacity="0"
       d="M 399.2257,217 H 507.88714"
       fill-rule="evenodd"
       id="path17" />
    <path
       stroke="#595959"
       stroke-width="3"
       stroke-linejoin="round"
       stroke-linecap="butt"
       d="m 399.2257,217 h 90.66144"
       fill-rule="evenodd"
       id="path18" />
    <path
       fill="#595959"
       stroke="#595959"
       stroke-width="3"
       stroke-linecap="butt"
       d="M 489.88715,221.9552 503.50144,217 489.88715,212.0448 Z"
       fill-rule="evenodd"
       id="path19" />
    <path
       fill="#000000"
       fill-opacity="0"
       d="M 399.2257,323 H 507.88714"
       fill-rule="evenodd"
       id="path20" />
    <path
       stroke="#595959"
       stroke-width="3"
       stroke-linejoin="round"
       stroke-linecap="butt"
       d="m 399.2257,323 h 90.66144"
       fill-rule="evenodd"
       id="path21" />
    <path
       fill="#595959"
       stroke="#595959"
       stroke-width="3"
       stroke-linecap="butt"
       d="M 489.88715,327.9552 503.50144,323 489.88715,318.0448 Z"
       fill-rule="evenodd"
       id="path22" />
    <path
       fill="#000000"
       fill-opacity="0"
       d="m 358,346.0315 h 43.02362 v 48.47244 H 358 Z"
       fill-rule="evenodd"
       id="path23" />
    <path
       fill="#000000"
       d="m 371.92188,378.0715 v -9.03125 h -3.625 v -2.70312 h 3.625 v -2 q 0,-1.71875 1.14062,-2.75 1.15625,-1.03125 3.0625,-1.03125 h 3.85938 v 2.64062 h -3.79688 q -0.57812,0 -0.92187,0.32813 -0.34375,0.3125 -0.34375,0.85937 v 1.95313 h 5.0625 v 2.70312 h -5.0625 v 9.03125 z"
       fill-rule="nonzero"
       id="path24" />
    <path
       fill="#000000"
       fill-opacity="0"
       d="M 190.21785,195.57742 H 294.91077"
       fill-rule="evenodd"
       id="path26" />
    <path
       stroke="#595959"
       stroke-width="3"
       stroke-linejoin="round"
       stroke-linecap="butt"
       d="M 190.21785,195.57742 H 294.91077"
       fill-rule="evenodd"
       id="path27" />
    <path
       fill="#000000"
       fill-opacity="0"
       d="M 81.55643,243.70866 H 190.21785"
       fill-rule="evenodd"
       id="path28" />
    <path
       stroke="#595959"
       stroke-width="3"
       stroke-linejoin="round"
       stroke-linecap="butt"
       d="m 81.55643,243.70866 h 90.66142"
       fill-rule="evenodd"
       id="path29" />
    <path
       fill="#595959"
       stroke="#595959"
       stroke-width="3"
       stroke-linecap="butt"
       d="m 172.21785,248.66386 13.61429,-4.9552 -13.61429,-4.9552 z"
       fill-rule="evenodd"
       id="path30" />
    <path
       fill="#000000"
       fill-opacity="0"
       d="M 190.21785,243.70866 H 294.91077"
       fill-rule="evenodd"
       id="path31" />
    <path
       stroke="#595959"
       stroke-width="3"
       stroke-linejoin="round"
       stroke-linecap="butt"
       d="M 190.21785,243.70866 H 294.91077"
       fill-rule="evenodd"
       id="path32" />
    <path
       fill="#ffffff"
       d="m 252.89502,177.31233 h 83.65353 v 84.03151 h -83.65353 z"
       fill-rule="evenodd"
       id="path33" />
    <path
       stroke="#595959"
       stroke-width="3"
       stroke-linejoin="round"
       stroke-linecap="butt"
       d="m 252.89502,177.31233 h 83.65353 v 84.03151 h -83.65353 z"
       fill-rule="evenodd"
       id="path34" />
    <path
       fill="#000000"
       d="m 278.8562,228.10246 q -2.03125,0 -3.21875,-1.07813 -1.17188,-1.07812 -1.17188,-2.90625 0,-1.9375 1.29688,-2.98437 1.29687,-1.0625 3.67187,-1.0625 h 3.28125 v -1.125 q 0,-0.96875 -0.625,-1.5 -0.60937,-0.54688 -1.70312,-0.54688 -0.98438,0 -1.64063,0.4375 -0.64062,0.42188 -0.75,1.17188 h -2.9375 q 0.21875,-1.875 1.6875,-2.96875 1.46875,-1.10938 3.75,-1.10938 2.42188,0 3.8125,1.21875 1.40625,1.20313 1.40625,3.26563 v 8.95312 h -2.89062 v -2.29687 h -0.48438 l 0.48438,-0.65625 q 0,1.46875 -1.09375,2.32812 -1.07813,0.85938 -2.875,0.85938 z m 0.98437,-2.25 q 1.26563,0 2.0625,-0.64063 0.8125,-0.65625 0.8125,-1.6875 v -1.60937 h -3.23437 q -0.90625,0 -1.46875,0.53125 -0.54688,0.53125 -0.54688,1.39062 0,0.9375 0.625,1.48438 0.64063,0.53125 1.75,0.53125 z m 13.75934,2.25 q -1.96875,0 -3.1875,-1.35938 -1.20312,-1.375 -1.20312,-3.67187 v -3.57813 q 0,-2.32812 1.1875,-3.6875 1.20312,-1.375 3.20312,-1.375 1.625,0 2.57813,0.92188 0.96875,0.92187 0.96875,2.53125 l -0.67188,-0.70313 h 0.6875 l -0.0937,-3.14062 v -3.6875 h 3 v 17.51562 h -2.92187 v -2.51562 h -0.67188 l 0.67188,-0.70313 q 0,1.60938 -0.96875,2.53125 -0.95313,0.92188 -2.57813,0.92188 z m 1.04688,-2.59375 q 1.15625,0 1.78125,-0.67188 0.64062,-0.6875 0.64062,-1.90625 v -3.3125 q 0,-1.23437 -0.64062,-1.90625 -0.625,-0.6875 -1.78125,-0.6875 -1.15625,0 -1.79688,0.67188 -0.64062,0.67187 -0.64062,1.92187 v 3.3125 q 0,1.23438 0.64062,1.90625 0.64063,0.67188 1.79688,0.67188 z m 13.35309,2.59375 q -1.96875,0 -3.1875,-1.35938 -1.20313,-1.375 -1.20313,-3.67187 v -3.57813 q 0,-2.32812 1.1875,-3.6875 1.20313,-1.375 3.20313,-1.375 1.625,0 2.57812,0.92188 0.96875,0.92187 0.96875,2.53125 l -0.67187,-0.70313 h 0.6875 l -0.0937,-3.14062 v -3.6875 h 3 v 17.51562 h -2.92188 v -2.51562 h -0.67187 l 0.67187,-0.70313 q 0,1.60938 -0.96875,2.53125 -0.95312,0.92188 -2.57812,0.92188 z m 1.04687,-2.59375 q 1.15625,0 1.78125,-0.67188 0.64063,-0.6875 0.64063,-1.90625 v -3.3125 q 0,-1.23437 -0.64063,-1.90625 -0.625,-0.6875 -1.78125,-0.6875 -1.15625,0 -1.79687,0.67188 -0.64063,0.67187 -0.64063,1.92187 v 3.3125 q 0,1.23438 0.64063,1.90625 0.64062,0.67188 1.79687,0.67188 z"
       fill-rule="nonzero"
       id="path35" />
  </g>
</svg>
